{"title":"Bhaag Milkha Bhaag 2013 DVDRip x264 Hindi ESubs - ViZNU [P2PDL]","uid":9038233,"size":690249472,"categoryP":"video","categoryS":"movies","magnet":"?xt=urn:btih:4ea06916eaf72f5820dd2d456274e6adf0c8c3ad&amp;dn=Bhaag+Milkha+Bhaag+2013+DVDRip+x264+Hindi+ESubs+-+ViZNU+%5BP2PDL%5D&amp;tr=udp%3A%2F%2Ftracker.openbittorrent.com%3A80&amp;tr=udp%3A%2F%2Fopen.demonii.com%3A1337&amp;tr=udp%3A%2F%2Ftracker.coppersurfer.tk%3A6969&amp;tr=udp%3A%2F%2Fexodus.desync.com%3A6969","seeders":2,"leechers":0,"uploader":"ValidusVyto","files":-1,"time":1381557209,"description":"_______ Visit us at our Semi Public Bittorrent Community ________\n  &lt;a href=&quot;\nhttp://p2pdl.com&quot; rel=&quot;nofollow&quot; target=&quot;_NEW&quot;&gt;\nhttp://p2pdl.com&lt;/a&gt;  _____________________________ &lt;a href=&quot; http://p2pdl.com&quot; rel=&quot;nofollow&quot; target=&quot;_NEW&quot;&gt; http://p2pdl.com&lt;/a&gt;\n\n\n\nBhaag Milkha Bhaag 2013 DVDRip x264 Hindi ESubs - ViZNU\n\n\nGenre: Biography | Drama | History\nPlot:The true story of the &quot;Flying Sikh&quot; - world champion runner and Olympian\nMilkha Singh -- who overcame the massacre of his family, civil war during the\nIndia-Pakistan partition, and ...\nDirector: Rakeysh Omprakash Mehra\nStars: Farhan Akhtar, Sonam Kapoor, Pavan Malhotra.\nRated: U\n\nIMDb: &lt;a href=&quot;\nhttp://www.imdb.com/title/tt2356180/&quot; rel=&quot;nofollow&quot; target=&quot;_NEW&quot;&gt;\nhttp://www.imdb.com/title/tt2356180/&lt;/a&gt;\n\nIMDb:\n\n\nFormat                         : MPEG-4\nFile size                      : 653 MiB\nDuration                       : 3h 6mn\nOverall bit rate               : 490 Kbps\n\nVideo\nFormat                         : AVC\nBit rate                       : 447 Kbps\nWidth                          : 656 pixels\nHeight                         : 272 pixels\nDisplay aspect ratio           : 2.40:1\nFrame rate mode                : Constant\nFrame rate                     : 23.976 fps\nBit depth                      : 10 bits\nStream size                    : 596 MiB (91%)\nWriting library                : x264 core 138 r2358\n\nAudio\nFormat                         : AAC\nBit rate mode                  : Variable\nBit rate                       : 39.6 Kbps\nChannel count                  : 2 channels\nChannel positions              : Front: L R\nSampling rate                  : 44.1 KHz\nStream size                    : 52.9 MiB (8%)\nLanguage                       : Hindi\n\nSubtitle                       : Yes(English)\n\nSource                         : NTSC DVD9\n &lt;a href=&quot;\nhttp://ultraimg.com/images/m2BMY.png&quot; rel=&quot;nofollow&quot; target=&quot;_NEW&quot;&gt;\nhttp://ultraimg.com/images/m2BMY.png&lt;/a&gt; &lt;a href=&quot;\nhttp://ultraimg.com/images/oFtEP.png&quot; rel=&quot;nofollow&quot; target=&quot;_NEW&quot;&gt;\nhttp://ultraimg.com/images/oFtEP.png&lt;/a&gt; &lt;a href=&quot;\nhttp://ultraimg.com/images/V7kY.png&quot; rel=&quot;nofollow&quot; target=&quot;_NEW&quot;&gt;\nhttp://ultraimg.com/images/V7kY.png&lt;/a&gt; &lt;a href=&quot;\nhttp://ultraimg.com/images/95RN7.png&quot; rel=&quot;nofollow&quot; target=&quot;_NEW&quot;&gt;\nhttp://ultraimg.com/images/95RN7.png&lt;/a&gt; &lt;a href=&quot;\nhttp://ultraimg.com/images/R5wMD.png&quot; rel=&quot;nofollow&quot; target=&quot;_NEW&quot;&gt;\nhttp://ultraimg.com/images/R5wMD.png&lt;/a&gt; &lt;a href=&quot;\nhttp://ultraimg.com/images/foNSH.png&quot; rel=&quot;nofollow&quot; target=&quot;_NEW&quot;&gt;\nhttp://ultraimg.com/images/foNSH.png&lt;/a&gt; &lt;a href=&quot;\nhttp://ultraimg.com/images/LAdTC.png&quot; rel=&quot;nofollow&quot; target=&quot;_NEW&quot;&gt;\nhttp://ultraimg.com/images/LAdTC.png&lt;/a&gt; &lt;a href=&quot;\nhttp://ultraimg.com/images/HYkvL.png&quot; rel=&quot;nofollow&quot; target=&quot;_NEW&quot;&gt;\nhttp://ultraimg.com/images/HYkvL.png&lt;/a&gt;\n\n----------------------------------------------------------------------------------------------------\n\n\nEncoded using revolutionary 10bit encoding, which enables us to provide you more crispier \nand sharper images at small sizes, just make sure you follow our instructions without a fault.\nRecommend to you to use latest version of VLC player. Install K-Lite Codec Pack or shark007 codecs\nin case of any kind of problem in playback (For non-VLC Media Player users). Alternatively, install\nCore AVC codecs, the fastest decoder that there is coupled with Community Center Codec Pack and play\non Windows Media Player Classic. Check sample to be sure.\nEnjoy!\n\nEncoder Notes:Looking For Early Access To Anything You Can Provide DVDScr, R5, DVDR, BluRay, Direct\nAudio, Music Releases and Seedboxes. We require dedicated servers, so as to do more \nand fast releases of movies.\nIf You Got anything to offer please contact us at &quot;&lt;a class=&quot;__cf_email__&quot; href=&quot;/cdn-cgi/l/email-protection&quot; data-cfemail=&quot;64141603240c11170c4a070b09&quot;&gt;[email&amp;#160;protected]&lt;/a&gt;&lt;script cf-hash='f9e31' type=&quot;text/javascript&quot;&gt;\n/* &lt;![CDATA[ */!function(){try{var t=&quot;currentScript&quot;in document?document.currentScript:function(){for(var t=document.getElementsByTagName(&quot;script&quot;),e=t.length;e--;)if(t[e].getAttribute(&quot;cf-hash&quot;))return t[e]}();if(t&amp;&amp;t.previousSibling){var e,r,n,i,c=t.previousSibling,a=c.getAttribute(&quot;data-cfemail&quot;);if(a){for(e=&quot;&quot;,r=parseInt(a.substr(0,2),16),n=2;a.length-n;n+=2)i=parseInt(a.substr(n,2),16)^r,e+=String.fromCharCode(i);e=document.createTextNode(e),c.parentNode.replaceChild(e,c)}}}catch(u){}}();/* ]]&gt; */&lt;/script&gt;&quot;.\n\nFacebook Fan Page:  \nSearch P2PDL on FB and hit like!!!\n\nFor more of our team uploads visit @                                             &lt;a href=&quot; http://thepiratebay.se/user/vitamin_x&quot; rel=&quot;nofollow&quot; target=&quot;_NEW&quot;&gt; http://thepiratebay.se/user/vitamin_x&lt;/a&gt;\t","torrent":{"xt":"urn:btih:4ea06916eaf72f5820dd2d456274e6adf0c8c3ad","amp;dn":"Bhaag+Milkha+Bhaag+2013+DVDRip+x264+Hindi+ESubs+-+ViZNU+%5BP2PDL%5D","amp;tr":["udp%3A%2F%2Ftracker.openbittorrent.com%3A80","udp%3A%2F%2Fopen.demonii.com%3A1337","udp%3A%2F%2Ftracker.coppersurfer.tk%3A6969","udp%3A%2F%2Fexodus.desync.com%3A6969"],"infoHash":"4ea06916eaf72f5820dd2d456274e6adf0c8c3ad","infoHashBuffer":{"type":"Buffer","data":[78,160,105,22,234,247,47,88,32,221,45,69,98,116,230,173,240,200,195,173]},"announce":[],"urlList":[]}}